<?xml version="1.0" encoding="UTF-8"?>
<svg width="1953px" height="375px" viewBox="0 0 1953 375" version="1.1" xmlns="http://www.w3.org/2000/svg" xmlns:xlink="http://www.w3.org/1999/xlink">
    <!-- Generator: Sketch 44.1 (41455) - http://www.bohemiancoding.com/sketch -->
    <title>Artboard</title>
    <desc>Created with Sketch.</desc>
    <defs>
        <linearGradient x1="-98.9787946%" y1="0%" x2="100%" y2="100%" id="linearGradient-1">
            <stop stop-color="#6A11CB" offset="0%"></stop>
            <stop stop-color="#2575FC" offset="100%"></stop>
        </linearGradient>
        <linearGradient x1="0%" y1="0%" x2="192.262436%" y2="100%" id="linearGradient-2">
            <stop stop-color="#6A11CB" offset="0%"></stop>
            <stop stop-color="#2575FC" offset="100%"></stop>
        </linearGradient>
        <linearGradient x1="-114.383984%" y1="-13.1985922%" x2="100%" y2="113.259919%" id="linearGradient-3">
            <stop stop-color="#6A11CB" offset="0%"></stop>
            <stop stop-color="#2575FC" offset="100%"></stop>
        </linearGradient>
    </defs>
    <g id="Page-1" stroke="none" stroke-width="1" fill="none" fill-rule="evenodd">
        <g id="Artboard">
            <g id="Logo">
                <path d="M977,4 L977,371 L1949,371 L1949,4 L977,4 Z" id="Combined-Shape" stroke="url(#linearGradient-1)" stroke-width="8"></path>
                <path d="M0,0 L980,0 L980,375 L0,375 L0,0 Z M138.5625,89.15625 L192,89.15625 L192,69.9375 L64.96875,69.9375 L64.96875,89.15625 L118.40625,89.15625 L118.40625,294 L138.5625,294 L138.5625,89.15625 Z M329.96875,294 L350.125,294 L350.125,69.9375 L329.96875,69.9375 L329.96875,172.4375 L244.1875,172.4375 L244.1875,69.9375 L224.03125,69.9375 L224.03125,294 L244.1875,294 L244.1875,191.65625 L329.96875,191.65625 L329.96875,294 Z M524.1875,242.125 L524.1875,69.9375 L504.03125,69.9375 L504.03125,242.125 C504.03125,247.125025 503.093759,251.786437 501.21875,256.109375 C499.343741,260.432313 496.791683,264.234359 493.5625,267.515625 C490.333317,270.796891 486.557313,273.374991 482.234375,275.25 C477.911437,277.125009 473.250025,278.0625 468.25,278.0625 L454.1875,278.0625 C449.187475,278.0625 444.526063,277.125009 440.203125,275.25 C435.880187,273.374991 432.078141,270.796891 428.796875,267.515625 C425.515609,264.234359 422.937509,260.432313 421.0625,256.109375 C419.187491,251.786437 418.25,247.125025 418.25,242.125 L418.25,69.9375 L398.09375,69.9375 L398.09375,242.125 C398.09375,249.729205 399.526027,256.86455 402.390625,263.53125 C405.255223,270.19795 409.187475,276.031225 414.1875,281.03125 C419.187525,286.031275 425.046841,289.963527 431.765625,292.828125 C438.484409,295.692723 445.645795,297.125 453.25,297.125 L469.1875,297.125 C476.791705,297.125 483.92705,295.692723 490.59375,292.828125 C497.26045,289.963527 503.093725,286.031275 508.09375,281.03125 C513.093775,276.031225 517.026027,270.19795 519.890625,263.53125 C522.755223,256.86455 524.1875,249.729205 524.1875,242.125 Z M710.28125,294 L730.4375,294 L730.4375,69.9375 L719.8125,69.9375 L652,253.6875 L651.375,261.96875 L650.75,253.6875 L582.78125,69.9375 L572.3125,69.9375 L572.3125,294 L592.46875,294 L592.46875,140.40625 L593.71875,149.9375 L646.21875,294 L656.84375,294 L708.875,149.9375 L710.28125,140.40625 L710.28125,294 Z M907.625,239 L907.625,224.625 C907.625,219.312473 906.921882,214.234399 905.515625,209.390625 C904.109368,204.546851 902.10418,200.015646 899.5,195.796875 C896.89582,191.578104 893.822934,187.776059 890.28125,184.390625 C886.739566,181.005191 882.781272,178.166678 878.40625,175.875 C882.781272,173.583322 886.739566,170.744809 890.28125,167.359375 C893.822934,163.973941 896.89582,160.197938 899.5,156.03125 C902.10418,151.864562 904.109368,147.359399 905.515625,142.515625 C906.921882,137.671851 907.625,132.593777 907.625,127.28125 L907.625,125.09375 C907.625,117.489545 906.192723,110.328159 903.328125,103.609375 C900.463527,96.8905914 896.531275,91.031275 891.53125,86.03125 C886.531225,81.031225 880.671909,77.0989727 873.953125,74.234375 C867.234341,71.3697773 860.072955,69.9375 852.46875,69.9375 L781.53125,69.9375 L781.53125,294 L852.46875,294 C860.072955,294 867.234341,292.567723 873.953125,289.703125 C880.671909,286.838527 886.531225,282.906275 891.53125,277.90625 C896.531275,272.906225 900.463527,267.07295 903.328125,260.40625 C906.192723,253.73955 907.625,246.604205 907.625,239 Z M887.46875,221.34375 L887.46875,239 C887.46875,244.000025 886.531259,248.661437 884.65625,252.984375 C882.781241,257.307313 880.203141,261.083317 876.921875,264.3125 C873.640609,267.541683 869.838563,270.093741 865.515625,271.96875 C861.192687,273.843759 856.531275,274.78125 851.53125,274.78125 L801.6875,274.78125 L801.6875,185.5625 L851.53125,185.5625 C856.531275,185.5625 861.192687,186.499991 865.515625,188.375 C869.838563,190.250009 873.640609,192.802067 876.921875,196.03125 C880.203141,199.260433 882.781241,203.036437 884.65625,207.359375 C886.531259,211.682313 887.46875,216.343725 887.46875,221.34375 Z M887.46875,125.09375 L887.46875,130.40625 C887.46875,135.406275 886.531259,140.067687 884.65625,144.390625 C882.781241,148.713563 880.203141,152.515609 876.921875,155.796875 C873.640609,159.078141 869.838563,161.656241 865.515625,163.53125 C861.192687,165.406259 856.531275,166.34375 851.53125,166.34375 L801.6875,166.34375 L801.6875,89.15625 L851.53125,89.15625 C856.531275,89.15625 861.192687,90.0937406 865.515625,91.96875 C869.838563,93.8437594 873.640609,96.4218586 876.921875,99.703125 C880.203141,102.984391 882.781241,106.786437 884.65625,111.109375 C886.531259,115.432313 887.46875,120.093725 887.46875,125.09375 Z" id="Combined-Shape" fill="url(#linearGradient-2)"></path>
                <path d="M1119.39062,89.15625 L1119.39062,294 L1099.23438,294 L1099.23438,89.15625 L1045.79688,89.15625 L1045.79688,69.9375 L1172.82812,69.9375 L1172.82812,89.15625 L1119.39062,89.15625 Z M1204.85938,294 L1204.85938,69.9375 L1330.95312,69.9375 L1330.95312,89.15625 L1225.01562,89.15625 L1225.01562,172.4375 L1310.79688,172.4375 L1310.79688,191.65625 L1225.01562,191.65625 L1225.01562,274.78125 L1330.95312,274.78125 L1330.95312,294 L1204.85938,294 Z M1507.35938,294 L1507.35938,140.40625 L1505.95312,149.9375 L1453.92188,294 L1443.29688,294 L1390.79688,149.9375 L1389.54688,140.40625 L1389.54688,294 L1369.39062,294 L1369.39062,69.9375 L1379.85938,69.9375 L1447.82812,253.6875 L1448.45312,261.96875 L1449.07812,253.6875 L1516.89062,69.9375 L1527.51562,69.9375 L1527.51562,294 L1507.35938,294 Z M1704.70312,152.90625 C1704.70312,160.510455 1703.27085,167.6458 1700.40625,174.3125 C1697.54165,180.9792 1693.6094,186.812475 1688.60938,191.8125 C1683.60935,196.812525 1677.75003,200.744777 1671.03125,203.609375 C1664.31247,206.473973 1657.15108,207.90625 1649.54688,207.90625 L1598.76562,207.90625 L1598.76562,294 L1578.60938,294 L1578.60938,69.9375 L1649.54688,69.9375 C1657.15108,69.9375 1664.31247,71.3697773 1671.03125,74.234375 C1677.75003,77.0989727 1683.60935,81.031225 1688.60938,86.03125 C1693.6094,91.031275 1697.54165,96.8905914 1700.40625,103.609375 C1703.27085,110.328159 1704.70312,117.489545 1704.70312,125.09375 L1704.70312,152.90625 Z M1684.54688,125.09375 C1684.54688,120.093725 1683.60938,115.432313 1681.73438,111.109375 C1679.85937,106.786437 1677.28127,102.984391 1674,99.703125 C1670.71873,96.4218586 1666.91669,93.8437594 1662.59375,91.96875 C1658.27081,90.0937406 1653.6094,89.15625 1648.60938,89.15625 L1598.76562,89.15625 L1598.76562,188.6875 L1648.60938,188.6875 C1653.6094,188.6875 1658.27081,187.750009 1662.59375,185.875 C1666.91669,183.999991 1670.71873,181.447933 1674,178.21875 C1677.28127,174.989567 1679.85937,171.213563 1681.73438,166.890625 C1683.60938,162.567687 1684.54688,157.906275 1684.54688,152.90625 L1684.54688,125.09375 Z M1865.95312,242.125 C1865.95312,249.729205 1864.41668,256.86455 1861.34375,263.53125 C1858.27082,270.19795 1854.15628,276.031225 1849,281.03125 C1843.84372,286.031275 1837.8542,289.963527 1831.03125,292.828125 C1824.2083,295.692723 1816.99483,297.125 1809.39062,297.125 L1793.29688,297.125 C1785.69267,297.125 1778.4792,295.692723 1771.65625,292.828125 C1764.8333,289.963527 1758.84378,286.031275 1753.6875,281.03125 C1748.53122,276.031225 1744.41668,270.19795 1741.34375,263.53125 C1738.27082,256.86455 1736.73438,249.729205 1736.73438,242.125 L1736.73438,233.21875 L1756.89062,229.9375 L1756.89062,242.125 C1756.89062,247.125025 1757.90624,251.786437 1759.9375,256.109375 C1761.96876,260.432313 1764.70311,264.234359 1768.14062,267.515625 C1771.57814,270.796891 1775.56248,273.374991 1780.09375,275.25 C1784.62502,277.125009 1789.3906,278.0625 1794.39062,278.0625 L1808.45312,278.0625 C1813.45315,278.0625 1818.19269,277.125009 1822.67188,275.25 C1827.15106,273.374991 1831.10936,270.796891 1834.54688,267.515625 C1837.98439,264.234359 1840.71874,260.432313 1842.75,256.109375 C1844.78126,251.786437 1845.79688,247.125025 1845.79688,242.125 L1845.79688,235.40625 C1845.79688,227.697878 1844.28647,221.291692 1841.26562,216.1875 C1838.24478,211.083308 1834.2344,206.734393 1829.23438,203.140625 C1824.23435,199.546857 1818.58336,196.500012 1812.28125,194 C1805.97914,191.499988 1799.49482,189.000012 1792.82812,186.5 C1786.16143,183.999988 1779.67711,181.239598 1773.375,178.21875 C1767.07289,175.197902 1761.4219,171.421898 1756.42188,166.890625 C1751.42185,162.359352 1747.41147,156.812533 1744.39062,150.25 C1741.36978,143.687467 1739.85938,135.614631 1739.85938,126.03125 L1739.85938,121.8125 C1739.85938,114.208295 1741.29165,107.07295 1744.15625,100.40625 C1747.02085,93.73955 1750.9531,87.906275 1755.95312,82.90625 C1760.95315,77.906225 1766.81247,73.9739727 1773.53125,71.109375 C1780.25003,68.2447773 1787.41142,66.8125 1795.01562,66.8125 L1809.39062,66.8125 C1816.99483,66.8125 1824.13018,68.2447773 1830.79688,71.109375 C1837.46357,73.9739727 1843.29685,77.906225 1848.29688,82.90625 C1853.2969,87.906275 1857.22915,93.73955 1860.09375,100.40625 C1862.95835,107.07295 1864.39062,114.208295 1864.39062,121.8125 L1864.39062,127.59375 L1844.23438,130.875 L1844.23438,121.8125 C1844.23438,116.812475 1843.29688,112.151063 1841.42188,107.828125 C1839.54687,103.505187 1836.99481,99.7291828 1833.76562,96.5 C1830.53644,93.2708172 1826.76044,90.7187594 1822.4375,88.84375 C1818.11456,86.9687406 1813.45315,86.03125 1808.45312,86.03125 L1795.95312,86.03125 C1790.9531,86.03125 1786.29169,86.9687406 1781.96875,88.84375 C1777.64581,90.7187594 1773.84377,93.2708172 1770.5625,96.5 C1767.28123,99.7291828 1764.70313,103.505187 1762.82812,107.828125 C1760.95312,112.151063 1760.01562,116.812475 1760.01562,121.8125 L1760.01562,126.03125 C1760.01562,133.218786 1761.52603,139.260392 1764.54688,144.15625 C1767.56772,149.052108 1771.5781,153.244774 1776.57812,156.734375 C1781.57815,160.223976 1787.22914,163.244779 1793.53125,165.796875 C1799.83336,168.348971 1806.31768,170.953112 1812.98438,173.609375 C1819.65107,176.265638 1826.13539,179.182276 1832.4375,182.359375 C1838.73961,185.536474 1844.3906,189.442685 1849.39062,194.078125 C1854.39065,198.713565 1858.40103,204.36455 1861.42188,211.03125 C1864.44272,217.69795 1865.95312,225.822869 1865.95312,235.40625 L1865.95312,242.125 Z" id="TEMPS" fill="url(#linearGradient-3)"></path>
            </g>
        </g>
    </g>
</svg>